<svg width="365" height="340" viewBox="0 0 365 340" fill="none" xmlns="http://www.w3.org/2000/svg">
<path d="M93.1725 80.7958L38.7506 49.372L85.8632 22.1577L140.279 53.621L93.1725 80.7958Z" fill="white"/>
<path d="M93.225 49.431V80.8286L38.7506 49.3719L0.32605 71.6083V134.423L38.7506 201.06L278.964 339.732L317.395 317.509V254.694L278.964 188.051L224.503 156.607L224.496 125.223L186.085 58.6644L131.636 27.2144L93.225 49.431Z" fill="#F7F2E8"/>
<path d="M186.085 58.6644L131.636 27.2143L178.762 0L233.178 31.4173L186.085 58.6644Z" fill="white"/>
<path d="M278.964 188.05L224.542 156.64L271.648 129.438L326.063 160.875L278.964 188.05Z" fill="white"/>
<path d="M224.496 125.222L186.085 58.6643L233.178 31.4172L271.635 98.0279L224.496 125.222Z" fill="#E6E1DD"/>
<path d="M326.053 160.893L278.936 188.061L317.354 254.692L364.472 227.524L326.053 160.893Z" fill="#E6E1DD"/>
<path d="M271.635 129.419L224.502 156.607L224.496 125.222L271.635 98.0278V129.419Z" fill="#D1D1D1"/>
<path d="M364.494 290.314L317.395 317.509V254.694L364.494 227.493V290.314Z" fill="#D1D1D1"/>
</svg>
